<?xml version="1.0" standalone="no"?><!DOCTYPE svg PUBLIC "-//W3C//DTD SVG 1.1//EN" "http://www.w3.org/Graphics/SVG/1.1/DTD/svg11.dtd"><svg t="1766558662147" class="icon" viewBox="0 0 1024 1024" version="1.1" xmlns="http://www.w3.org/2000/svg" p-id="12504" xmlns:xlink="http://www.w3.org/1999/xlink" width="48" height="48"><path d="M512 85.333333c235.648 0 426.666667 191.018667 426.666667 426.666667s-191.018667 426.666667-426.666667 426.666667S85.333333 747.648 85.333333 512 276.352 85.333333 512 85.333333z m295.68 597.333334H670.506667c-17.109333 54.4-42.986667 108.117333-77.632 161.024A341.930667 341.930667 0 0 0 807.68 682.666667z m-462.570667 0H216.32a342.101333 342.101333 0 0 0 204.714667 158.421333c-33.813333-52.053333-59.114667-104.896-75.946667-158.4zM580.266667 682.666667h-144.938667c16.96 45.226667 41.109333 89.984 72.448 134.4 31.36-44.416 55.530667-89.173333 72.490667-134.4zM328.32 426.666667H181.418667A341.952 341.952 0 0 0 170.666667 512c0 29.461333 3.733333 58.069333 10.752 85.333333h144.085333a536.32 536.32 0 0 1 2.816-170.666666z m514.261333 0h-155.264a536.32 536.32 0 0 1 2.816 170.666666h152.448c7.018667-27.264 10.752-55.872 10.752-85.333333 0-29.44-3.733333-58.048-10.752-85.333333z m-242.026666 0h-185.472c-11.861333 57.770667-12.885333 114.602667-3.136 170.666666h191.744c9.749333-56.064 8.725333-112.896-3.136-170.666666zM424.277333 182.037333l-3.008 0.832A342.101333 342.101333 0 0 0 216.32 341.333333h133.482667c17.301333-52.693333 42.133333-105.834667 74.474666-159.296z m165.546667-2.453333l0.256 0.362667c32.96 54.165333 58.218667 107.989333 75.733333 161.408h141.866667a341.909333 341.909333 0 0 0-217.834667-161.770667z m-81.984 29.653333l-1.130667 1.706667c-27.946667 44.053333-50.133333 87.488-66.517333 130.389333h135.253333c-16.597333-43.456-39.125333-87.466667-67.626666-132.096z" fill="#1296db" p-id="12505"></path></svg>